<?xml version="1.0" encoding="UTF-8" standalone="no"?>
<svg
   xmlns:dc="http://purl.org/dc/elements/1.1/"
   xmlns:cc="http://creativecommons.org/ns#"
   xmlns:rdf="http://www.w3.org/1999/02/22-rdf-syntax-ns#"
   xmlns:svg="http://www.w3.org/2000/svg"
   xmlns="http://www.w3.org/2000/svg"
   xmlns:sodipodi="http://sodipodi.sourceforge.net/DTD/sodipodi-0.dtd"
   xmlns:inkscape="http://www.inkscape.org/namespaces/inkscape"
   width="122"
   height="30"
   viewBox="0 0 122 30"
   style="shape-rendering:geometricPrecision; text-rendering:geometricPrecision; image-rendering:optimizeQuality; fill-rule:evenodd; clip-rule:evenodd"
   xml:space="preserve"
   version="1.1"
   id="svg38"
   sodipodi:docname="ms-excel.svg"
   inkscape:version="0.92.3 (2405546, 2018-03-11)"><metadata
   id="metadata42"><rdf:RDF><cc:Work
       rdf:about=""><dc:format>image/svg+xml</dc:format><dc:type
         rdf:resource="http://purl.org/dc/dcmitype/StillImage" /></cc:Work></rdf:RDF></metadata><sodipodi:namedview
   pagecolor="#ffffff"
   bordercolor="#666666"
   borderopacity="1"
   objecttolerance="10"
   gridtolerance="10"
   guidetolerance="10"
   inkscape:pageopacity="0"
   inkscape:pageshadow="2"
   inkscape:window-width="1360"
   inkscape:window-height="706"
   id="namedview40"
   showgrid="false"
   inkscape:zoom="6.9841285"
   inkscape:cx="71.342247"
   inkscape:cy="2.0493025"
   inkscape:window-x="-8"
   inkscape:window-y="-8"
   inkscape:window-maximized="1"
   inkscape:current-layer="svg38" />
	<defs
   id="defs34">
		<linearGradient
   id="Gradient1">
			<stop
   offset="0%"
   stop-color="#333333"
   stop-opacity="100"
   id="stop27" />
			<stop
   offset="100%"
   stop-color="#333333"
   stop-opacity="100"
   id="stop29" />
		</linearGradient>
		<style
   type="text/css"
   id="style32">
			<![CDATA[
				.fil1 {fill:#FF5722}
				.fil2 {fill:#7CB342}
				.fil3 {fill:#03A9F4}
				.fil4 {fill:#FFC107}
				#rect1 { fill: url(#Gradient1); }
				#onversion {
					fill: #0E7FC0;
				}
				#ontext {
					font-weight: bold;
					fill: #fff;
					font-size: 13px;
					font-family: monospace;
					font-weight: normal;
					letter-spacing: 0.1em;
					text-shadow: 
						0 0 1px white,
						-1px 0 3px black,
						0 -1px 3px black;
				}
			]]>
		</style>
	</defs>
	<g
   id="msexcel">
		<rect
   id="rect1"
   x="0"
   y="0"
   rx="3"
   ry="3"
   width="122"
   height="30" />
		
	</g>
<g
   id="g86"
   transform="matrix(1.0531801,0,0,0.9242622,1.6313633,-0.076626)"><path
     id="path57"
     style="fill:#20744a;fill-rule:evenodd"
     d="M 28.781,4.405 H 18.651 V 2.018 L 2,4.588 v 22.527 l 16.651,2.868 v -3.538 h 10.13 A 1.162,1.162 0 0 0 30,25.349 V 5.5 A 1.162,1.162 0 0 0 28.781,4.405 Z m 0.16,21.126 H 18.617 L 18.6,23.642 h 2.487 v -2.2 h -2.506 l -0.012,-1.3 h 2.518 v -2.2 H 18.55 l -0.012,-1.3 h 2.549 v -2.2 H 18.53 v -1.3 h 2.557 v -2.2 H 18.53 v -1.3 h 2.557 v -2.2 H 18.53 v -2 h 10.411 z"
     inkscape:connector-curvature="0" /><rect
     id="rect59"
     style="fill:#20744a"
     height="2.2"
     width="4.323"
     y="7.4390001"
     x="22.487" /><rect
     id="rect61"
     style="fill:#20744a"
     height="2.2"
     width="4.323"
     y="10.94"
     x="22.487" /><rect
     id="rect63"
     style="fill:#20744a"
     height="2.2"
     width="4.323"
     y="14.441"
     x="22.487" /><rect
     id="rect65"
     style="fill:#20744a"
     height="2.2"
     width="4.323"
     y="17.941999"
     x="22.487" /><rect
     id="rect67"
     style="fill:#20744a"
     height="2.2"
     width="4.323"
     y="21.443001"
     x="22.487" /><polygon
     id="polygon69"
     style="fill:#ffffff;fill-rule:evenodd"
     points="9.781,16.642 8.248,20.513 6.163,20.329 8.585,15.666 6.347,10.673 8.493,10.55 9.842,14.259 11.436,10.397 13.582,10.274 10.976,15.54 13.582,20.819 11.313,20.666 " />
     <text x="39" y="18" id="ontext">
			MS Excel
		</text>
     </g>
</svg>
